<?xml version="1.0" standalone="no"?><!DOCTYPE svg PUBLIC "-//W3C//DTD SVG 1.1//EN" "http://www.w3.org/Graphics/SVG/1.1/DTD/svg11.dtd"><svg t="1596360884123" class="icon" viewBox="0 0 1028 1024" version="1.1" xmlns="http://www.w3.org/2000/svg" p-id="1080" xmlns:xlink="http://www.w3.org/1999/xlink" width="200.78125" height="200"><defs><style type="text/css"></style></defs><path d="M257.205651 610.863422v316.684459H128.602826a32.150706 32.150706 0 0 1-32.150707-32.150707V643.014129a32.150706 32.150706 0 0 1 32.150707-32.150707h128.602825m96.45212-96.452119H128.602826a128.602826 128.602826 0 0 0-128.602826 128.602826v252.383045a128.602826 128.602826 0 0 0 128.602826 128.602826h225.054945V514.411303z" fill="#4C4A58" p-id="1081"></path><path d="M900.21978 96.452119a32.150706 32.150706 0 0 1 32.150707 32.150707v766.794348a32.150706 32.150706 0 0 1-32.150707 32.150707H385.808477a32.150706 32.150706 0 0 1-32.150706-32.150707V128.602826a32.150706 32.150706 0 0 1 32.150706-32.150707h514.411303m0-96.452119H385.808477a128.602826 128.602826 0 0 0-128.602826 128.602826v766.794348a128.602826 128.602826 0 0 0 128.602826 128.602826h514.411303a128.602826 128.602826 0 0 0 128.602826-128.602826V128.602826a128.602826 128.602826 0 0 0-128.602826-128.602826z" fill="#4C4A58" p-id="1082"></path><path d="M417.637677 277.460597m32.150706 0l385.808477 0q32.150706 0 32.150707 32.150706l0 141.141601q0 32.150706-32.150707 32.150707l-385.808477 0q-32.150706 0-32.150706-32.150707l0-141.141601q0-32.150706 32.150706-32.150706Z" fill="#51C75B" p-id="1083"></path><path d="M692.526217 615.364521h-225.054945a48.22606 48.22606 0 0 0 0 96.45212h225.054945a48.22606 48.22606 0 0 0 0-96.45212z" fill="#4C4A58" p-id="1084"></path></svg>