<?xml version="1.0" standalone="no"?><!DOCTYPE svg PUBLIC "-//W3C//DTD SVG 1.1//EN" "http://www.w3.org/Graphics/SVG/1.1/DTD/svg11.dtd"><svg t="1601690960576" class="icon" viewBox="0 0 1024 1024" version="1.1" xmlns="http://www.w3.org/2000/svg" p-id="38345" xmlns:xlink="http://www.w3.org/1999/xlink" width="200" height="200"><defs><style type="text/css"></style></defs><path d="M384 810.666667h128v-258.474667L341.333333 403.370667l-170.666666 148.821333V810.666667h128v-170.666667h85.333333v170.666667z m512 85.333333H128a42.666667 42.666667 0 0 1-42.666667-42.666667v-320.554666a42.666667 42.666667 0 0 1 14.634667-32.170667L256 364.544V170.666667a42.666667 42.666667 0 0 1 42.666667-42.666667h597.333333a42.666667 42.666667 0 0 1 42.666667 42.666667v682.666666a42.666667 42.666667 0 0 1-42.666667 42.666667z m-213.333333-426.666667v85.333334h85.333333v-85.333334h-85.333333z m0 170.666667v85.333333h85.333333v-85.333333h-85.333333z m0-341.333333v85.333333h85.333333V298.666667h-85.333333z m-170.666667 0v85.333333h85.333333V298.666667h-85.333333z" p-id="38346"></path></svg>